<?xml version="1.0" encoding="UTF-8"?><svg id="Warstwa_4" xmlns="http://www.w3.org/2000/svg" viewBox="0 0 44 44"><path d="m7.54,9.28l-1.57-1.24c-1.32,1.67-2.04,3.8-2.04,6.01,0,2.33.79,4.55,2.24,6.25l1.53-1.29c-1.14-1.34-1.76-3.1-1.76-4.96s.57-3.46,1.61-4.77Z"/><path d="m4.77,6.06l-1.54-1.27C1.15,7.31,0,10.55,0,13.93s1.15,6.62,3.23,9.14l1.54-1.27c-1.79-2.16-2.77-4.95-2.77-7.86s.98-5.7,2.77-7.86Z"/><path d="m37.69,20.3c1.44-1.7,2.24-3.92,2.24-6.25s-.73-4.35-2.04-6.01l-1.57,1.24c1.04,1.31,1.61,3.01,1.61,4.77,0,1.86-.63,3.62-1.76,4.96l1.53,1.29Z"/><path d="m39.08,21.79l1.54,1.27c2.08-2.52,3.23-5.76,3.23-9.14s-1.15-6.62-3.23-9.14l-1.54,1.27c1.79,2.16,2.77,4.95,2.77,7.86s-.98,5.7-2.77,7.86Z"/><rect x="21" y="7" width="2" height="10"/><rect x="21" y="19" width="2" height="2"/><path d="m22,26c6.62,0,12-5.38,12-12S28.62,2,22,2s-12,5.38-12,12,5.38,12,12,12Zm0-22c5.51,0,10,4.49,10,10s-4.49,10-10,10-10-4.49-10-10,4.49-10,10-10Z"/><path d="m43,30h-4l-1,1v.51l-4.38-1.46-.32-.05h-11.92c-1.35,0-2.55.84-2.93,2.05-.3.95-.15,1.94.43,2.73.56.77,1.47,1.23,2.42,1.23h1.39l-1.67,1h-7.64c-1.35,0-2.55.84-2.93,2.05-.3.95-.15,1.94.43,2.73.56.77,1.47,1.23,2.42,1.23h8l8.06-1h8.64v1l1,1h4l1-1v-12l-1-1Zm-13.7,10l-8.06,1h-7.94c-.32,0-.62-.15-.81-.41-.11-.15-.28-.48-.14-.94.12-.38.55-.65,1.03-.65h7.92l.51-.14,4.76-2.86h2.42v-2h-7.7c-.32,0-.62-.15-.81-.41-.11-.15-.28-.48-.14-.94.12-.38.55-.65,1.03-.65h11.75l4.86,1.62v6.38h-8.7Zm12.7,2h-2v-10h2v10Z"/></svg>