<?xml version="1.0" encoding="UTF-8"?><svg id="B_R_Logo_RGB" xmlns="http://www.w3.org/2000/svg" viewBox="0 0 186.72 130.29"><defs><style>.cls-1{fill:#f80;}</style></defs><g><path d="M35.54,104.9l-2.29,6.13h1.47l.41-1.29h2.3l.42,1.29h1.47l-2.29-6.13h-1.49Zm-.05,3.75l.79-2.44,.8,2.44h-1.58Z"/><path d="M47.48,106.28c-.38,0-.71,.08-1,.24-.29,.16-.51,.4-.66,.7-.12-.3-.3-.54-.53-.7-.23-.16-.5-.24-.81-.24s-.59,.07-.83,.2c-.24,.13-.43,.32-.57,.56v-.63h-1.18v4.62h1.29v-2.46c0-.38,.08-.67,.24-.87,.16-.2,.38-.3,.67-.3,.53,0,.8,.32,.8,.95v2.68h1.29v-2.52c0-.36,.08-.64,.24-.83,.16-.19,.38-.29,.67-.29,.53,0,.8,.32,.8,.95v2.68h1.29v-2.76c0-.62-.15-1.11-.45-1.46-.3-.35-.72-.53-1.25-.53Z"/><path d="M52.3,106.28c-.45,0-.85,.1-1.2,.3-.35,.2-.63,.48-.83,.85-.2,.37-.31,.8-.31,1.3,0,.76,.23,1.35,.68,1.79,.45,.43,1.08,.65,1.88,.65,.38,0,.73-.05,1.05-.14,.32-.09,.58-.22,.78-.39l-.4-.9c-.16,.11-.38,.2-.64,.27-.26,.07-.51,.11-.75,.11-.37,0-.66-.09-.89-.27-.22-.18-.37-.45-.42-.79h3.14v-.55c0-.69-.19-1.23-.56-1.63-.38-.4-.89-.6-1.53-.6Zm-1.03,1.94c.04-.3,.15-.53,.33-.69,.18-.16,.4-.24,.68-.24s.5,.08,.66,.24c.16,.16,.25,.39,.27,.69h-1.94Z"/><path d="M60.79,106.28c-.38,0-.71,.08-1,.24-.29,.16-.51,.4-.66,.7-.12-.3-.3-.54-.53-.7-.23-.16-.5-.24-.81-.24s-.59,.07-.83,.2c-.24,.13-.43,.32-.57,.56v-.63h-1.18v4.62h1.29v-2.46c0-.38,.08-.67,.24-.87,.16-.2,.38-.3,.67-.3,.53,0,.8,.32,.8,.95v2.68h1.29v-2.52c0-.36,.08-.64,.24-.83,.16-.19,.38-.29,.67-.29,.53,0,.8,.32,.8,.95v2.68h1.29v-2.76c0-.62-.15-1.11-.45-1.46-.3-.35-.72-.53-1.25-.53Z"/><path d="M67.36,106.6c-.32-.21-.7-.32-1.12-.32-.31,0-.59,.06-.85,.19-.25,.13-.46,.31-.63,.55v-2.57h-1.29v6.58h1.25v-.61c.17,.24,.39,.42,.65,.55,.26,.13,.55,.2,.86,.2,.4,0,.77-.1,1.09-.3,.32-.2,.57-.48,.76-.86,.18-.37,.28-.8,.28-1.29s-.09-.88-.26-1.25c-.17-.37-.42-.66-.75-.88Zm-.63,3.08c-.21,.24-.49,.37-.83,.37s-.64-.12-.86-.37c-.22-.25-.33-.56-.33-.95s.11-.71,.33-.95c.22-.24,.51-.37,.86-.37s.62,.12,.83,.37c.21,.25,.32,.56,.32,.95s-.11,.71-.32,.95Z"/><path d="M71.32,106.28c-.45,0-.85,.1-1.2,.3-.35,.2-.63,.48-.83,.85-.2,.37-.31,.8-.31,1.3,0,.76,.23,1.35,.68,1.79,.45,.43,1.08,.65,1.88,.65,.38,0,.73-.05,1.05-.14,.32-.09,.58-.22,.78-.39l-.4-.9c-.16,.11-.38,.2-.64,.27-.26,.07-.51,.11-.75,.11-.37,0-.66-.09-.89-.27-.22-.18-.37-.45-.42-.79h3.14v-.55c0-.69-.19-1.23-.56-1.63-.38-.4-.89-.6-1.53-.6Zm-1.03,1.94c.04-.3,.15-.53,.33-.69,.18-.16,.4-.24,.68-.24s.5,.08,.66,.24c.16,.16,.25,.39,.27,.69h-1.94Z"/><path d="M75.96,106.57c-.24,.16-.42,.38-.55,.66v-.83h-1.18v4.62h1.29v-2.25c0-.39,.1-.69,.31-.91,.2-.22,.49-.33,.87-.33,.21,0,.39,.02,.51,.05v-1.18c-.13-.05-.28-.07-.44-.07-.31,0-.57,.08-.81,.24Z"/><path d="M83.62,106.49c-.38-.22-.82-.32-1.32-.32-.47,0-.89,.1-1.27,.3s-.68,.49-.9,.86c-.22,.37-.33,.8-.33,1.29,0,.46,.1,.87,.31,1.24,.2,.37,.5,.66,.87,.88,.38,.21,.82,.32,1.32,.32,.47,0,.89-.1,1.27-.3,.38-.2,.68-.49,.9-.86,.22-.37,.33-.8,.33-1.29,0-.46-.1-.87-.31-1.24-.21-.37-.5-.66-.88-.88Zm-.47,3.07c-.22,.24-.51,.37-.85,.37s-.62-.12-.85-.37c-.22-.25-.33-.56-.33-.95s.11-.71,.33-.95c.22-.24,.5-.37,.85-.37s.62,.12,.85,.37c.22,.25,.33,.56,.33,.95s-.11,.71-.33,.95Z"/><path d="M88.13,105.37c.15,0,.3,.04,.46,.11l.25-.98c-.11-.06-.26-.11-.42-.16-.17-.04-.33-.06-.48-.06-.6,0-1.06,.17-1.39,.52s-.5,.84-.5,1.47v.11h-.76v1.05h.76v3.57h1.29v-3.57h1.28v-1.05h-1.28v-.14c0-.58,.26-.87,.79-.87Z"/><path d="M93.79,109.97c-.23,0-.4-.06-.5-.19-.1-.13-.15-.33-.15-.62v-1.8h1.35v-1.05h-1.35v-1.15h-1.19v.77c0,.14-.03,.24-.09,.3-.06,.06-.16,.09-.3,.09h-.46v1.05h.76v1.96c0,.57,.14,1.01,.42,1.31,.28,.3,.69,.44,1.24,.44,.24,0,.46-.03,.67-.07,.21-.05,.39-.12,.53-.21l-.21-.96c-.23,.1-.47,.16-.71,.16Z"/><path d="M98.01,106.26c-.29,0-.54,.06-.77,.18-.22,.12-.41,.29-.56,.52v-2.53h-1.29v6.58h1.29v-2.46c0-.38,.08-.67,.25-.87,.17-.2,.4-.3,.7-.3,.55,0,.83,.32,.83,.95v2.68h1.29v-2.76c0-.62-.15-1.11-.46-1.46-.31-.35-.73-.53-1.28-.53Z"/><path d="M102.89,106.17c-.45,0-.85,.1-1.2,.3-.35,.2-.63,.48-.83,.85-.2,.37-.31,.8-.31,1.3,0,.76,.23,1.35,.68,1.79,.45,.43,1.08,.65,1.88,.65,.38,0,.73-.05,1.05-.14,.32-.09,.58-.22,.78-.39l-.4-.9c-.16,.11-.38,.2-.64,.27-.26,.07-.51,.11-.75,.11-.37,0-.66-.09-.89-.27-.22-.18-.37-.45-.42-.79h3.14v-.55c0-.69-.19-1.23-.56-1.63-.38-.4-.89-.6-1.53-.6Zm-1.03,1.94c.04-.3,.15-.53,.33-.69,.18-.16,.4-.24,.68-.24s.5,.08,.66,.24c.16,.16,.25,.39,.27,.69h-1.94Z"/><path d="M109.66,104.87l-2.29,6.13h1.47l.41-1.29h2.3l.42,1.29h1.47l-2.29-6.13h-1.49Zm-.05,3.75l.79-2.44,.8,2.44h-1.58Z"/><path d="M117.81,107.63c.43-.28,.65-.68,.65-1.19,0-.48-.18-.86-.55-1.14-.36-.28-.85-.42-1.47-.42h-2.4v6.13h2.52c.77,0,1.36-.16,1.76-.48,.41-.32,.61-.78,.61-1.37,0-.76-.38-1.27-1.13-1.53Zm-2.42-1.69h.96c.26,0,.45,.06,.6,.17,.14,.12,.21,.27,.21,.48s-.07,.37-.21,.48c-.15,.12-.34,.18-.6,.18h-.95v-1.31Zm1.92,3.77c-.18,.13-.44,.2-.79,.2h-1.13v-1.62h1.14c.33,0,.58,.07,.77,.22s.28,.35,.28,.61-.09,.46-.27,.6Z"/><path d="M123.63,107.63c.43-.28,.65-.68,.65-1.19,0-.48-.18-.86-.55-1.14-.36-.28-.85-.42-1.47-.42h-2.4v6.13h2.52c.77,0,1.36-.16,1.76-.48,.41-.32,.61-.78,.61-1.37,0-.76-.38-1.27-1.13-1.53Zm-2.42-1.69h.96c.26,0,.45,.06,.6,.17,.14,.12,.21,.27,.21,.48s-.07,.37-.21,.48c-.15,.12-.34,.18-.6,.18h-.95v-1.31Zm1.92,3.77c-.18,.13-.44,.2-.79,.2h-1.13v-1.62h1.14c.33,0,.58,.07,.77,.22,.18,.15,.28,.35,.28,.61s-.09,.46-.27,.6Z"/><path d="M132.46,107.59h-1.72v1.17h1.17v1.01c-.25,.1-.59,.16-1.01,.16-.61,0-1.09-.18-1.43-.53-.34-.35-.52-.84-.52-1.47s.17-1.07,.5-1.42c.33-.35,.79-.52,1.37-.52,.27,0,.54,.05,.79,.14,.25,.09,.47,.23,.67,.41l.73-.94c-.25-.27-.57-.48-.97-.63-.39-.15-.82-.23-1.27-.23-.64,0-1.2,.13-1.68,.39-.49,.26-.87,.63-1.14,1.12-.28,.49-.41,1.06-.41,1.71s.13,1.19,.4,1.67c.27,.48,.65,.86,1.14,1.13,.5,.27,1.09,.41,1.76,.41,.92,0,1.69-.21,2.32-.63v-2.25c0-.27-.05-.46-.15-.55-.1-.09-.29-.14-.57-.14Z"/><path d="M135.83,106.55c-.24,.16-.42,.38-.55,.66v-.83h-1.18v4.62h1.29v-2.25c0-.39,.1-.69,.31-.91,.2-.22,.49-.33,.87-.33,.21,0,.39,.02,.51,.05v-1.18c-.13-.05-.28-.07-.44-.07-.31,0-.57,.08-.81,.24Z"/><path d="M141.29,106.54c-.38-.22-.82-.32-1.32-.32-.47,0-.89,.1-1.27,.3-.38,.2-.68,.49-.9,.86-.22,.37-.33,.8-.33,1.29,0,.46,.1,.87,.31,1.24,.2,.37,.5,.66,.87,.88,.38,.21,.82,.32,1.32,.32,.47,0,.89-.1,1.27-.3,.38-.2,.68-.49,.9-.86,.22-.37,.33-.8,.33-1.28,0-.46-.1-.87-.31-1.24-.21-.37-.5-.66-.88-.88Zm-.47,3.07c-.22,.24-.51,.37-.85,.37s-.62-.12-.85-.37c-.22-.25-.33-.56-.33-.95s.11-.71,.33-.95c.22-.24,.5-.37,.85-.37s.62,.12,.85,.37c.22,.25,.33,.56,.33,.95s-.11,.71-.33,.95Z"/><path d="M146.31,108.87c0,.38-.08,.67-.24,.87-.16,.2-.39,.3-.7,.3-.55,0-.82-.32-.82-.95v-2.69h-1.29v2.76c0,.62,.16,1.11,.46,1.47,.31,.35,.74,.53,1.28,.53,.32,0,.6-.07,.84-.2,.24-.13,.43-.32,.58-.56v.62h1.18v-4.62h-1.29v2.47Z"/><path d="M153.24,107.41c-.17-.37-.42-.66-.75-.88-.32-.21-.7-.32-1.12-.32-.32,0-.61,.07-.86,.2-.26,.13-.48,.32-.65,.55v-.62h-1.25v6.47h1.29v-2.46c.16,.25,.37,.43,.62,.55,.25,.13,.54,.19,.86,.19,.4,0,.77-.1,1.09-.3,.32-.2,.57-.48,.76-.86,.18-.37,.28-.8,.28-1.29s-.09-.88-.26-1.25Zm-1.38,2.2c-.21,.24-.49,.37-.83,.37s-.64-.12-.86-.37c-.22-.25-.33-.56-.33-.95s.11-.71,.33-.95c.22-.24,.51-.37,.86-.37s.62,.12,.83,.37c.21,.25,.32,.56,.32,.95s-.11,.71-.32,.95Z"/></g><rect class="cls-1" x="33.22" y="86.42" width="120.28" height="10.66"/><g><path d="M104.66,66.11l-4.14-5.16-3.1,3.83-7.8-10.16,10.82,.03v-7.11h-21.24v6.99l3.86,4.16c-.35,.19-2.68,1.23-3.44,1.73-2.13,1.41-3.96,3.38-4.69,5.87-1.33,4.55,1,9.59,5.18,11.7,4.1,2.08,9.61,1.65,13.73-.2,.85-.38,1.64-.9,2.4-1.44,.07-.05,.33-.24,.62-.47l2.91,3.46h9.45l-7.68-9.42,3.1-3.82Zm-15.42,6.34c-1.54,.51-3.5,.29-4.86-.65-.34-.23-.63-.52-.88-.84-.89-1.18-1.1-2.83-.21-4.13,.93-1.36,2.49-2.25,3.95-2.94l.95,1.18,4.37,5.56c-1.54,1.01-3.09,1.74-3.32,1.82Z"/><path d="M139.06,61.86s10.74-1.71,10.74-13.94c0-8.6-5.41-14.71-16.37-14.71h-22.37v46.17h10.71v-17.49l4.87,.02,13.99,17.47h12.46l-14.03-17.52Zm-6.9-7.46h-10.47v-12.4h10.47c4.44,0,7.22,1.9,7.22,6.2,0,3.94-2.59,6.2-7.22,6.2Z"/><path d="M64.58,55.45c3.95-1.85,6.11-5.41,6.11-9.74,0-7.57-5.65-12.5-15.19-12.5h-22.29v46.17h23.08c10.72,0,15.84-5.98,15.84-12.92,0-5.16-2.63-9.23-7.56-11.01Zm-20.59-14.71h9.75c3.88,0,6.18,1.85,6.18,5.12s-2.3,5.36-6.71,5.36h-9.22v-10.48Zm10.33,31.61h-10.33v-14.09h10.53c4.42,0,7.06,2.42,7.06,7.04,0,4.33-2.51,7.04-7.26,7.04Z"/></g></svg>